# Blender v2.83.5 OBJ File: 'Backdoor.blend'
# www.blender.org
mtllib Backdoor.mtl
o Cylinder
v 0.000000 -0.315000 -6.000000
v 0.000000 0.315000 -5.361105
v 3.856726 -0.315000 -4.596267
v 3.446052 0.315000 -4.106845
v 5.908847 -0.315000 -1.041889
v 5.279658 0.315000 -0.930946
v 5.196152 -0.315000 3.000000
v 4.642853 0.315000 2.680553
v 2.052120 -0.315000 5.638156
v 1.833605 0.315000 5.037791
v -2.052122 -0.315000 5.638155
v -1.833607 0.315000 5.037790
v -5.196153 -0.315000 3.000000
v -4.642853 0.315000 2.680552
v -5.908846 -0.315000 -1.041889
v -5.279657 0.315000 -0.930946
v -3.856727 -0.315000 -4.596266
v -3.446053 0.315000 -4.106844
v 3.856726 0.315000 -4.596267
v 0.000000 0.315000 -6.000000
v 5.908847 0.315000 -1.041889
v 5.196152 0.315000 3.000000
v 2.052120 0.315000 5.638156
v -2.052122 0.315000 5.638155
v -5.196153 0.315000 3.000000
v -5.908846 0.315000 -1.041889
v -3.856727 0.315000 -4.596266
v 3.446052 0.315000 -4.106845
v 0.000000 0.315000 -5.361105
v 5.279658 0.315000 -0.930946
v 4.642853 0.315000 2.680553
v 1.833605 0.315000 5.037791
v -1.833607 0.315000 5.037790
v -4.642853 0.315000 2.680552
v -5.279657 0.315000 -0.930946
v -3.446053 0.315000 -4.106844
vt 1.000000 0.500000
vt 1.000000 1.000000
vt 0.888889 1.000000
vt 0.888889 0.500000
vt 0.777778 1.000000
vt 0.777778 0.500000
vt 0.666667 1.000000
vt 0.666667 0.500000
vt 0.555556 1.000000
vt 0.555556 0.500000
vt 0.444444 1.000000
vt 0.444444 0.500000
vt 0.333333 1.000000
vt 0.333333 0.500000
vt 0.222222 1.000000
vt 0.222222 0.500000
vt 0.176656 0.048488
vt 0.323344 0.048488
vt 0.323344 0.048488
vt 0.176656 0.048488
vt 0.111111 1.000000
vt 0.111111 0.500000
vt 0.000000 1.000000
vt 0.000000 0.500000
vt 0.750000 0.490000
vt 0.904269 0.433851
vt 0.986354 0.291676
vt 0.957846 0.130000
vt 0.832085 0.024474
vt 0.667915 0.024474
vt 0.542154 0.130000
vt 0.513646 0.291676
vt 0.595731 0.433851
vt 0.250000 0.464444
vt 0.387842 0.414274
vt 0.404269 0.433851
vt 0.250000 0.490000
vt 0.461186 0.287238
vt 0.486354 0.291676
vt 0.435714 0.142778
vt 0.457846 0.130000
vt 0.332085 0.024474
vt 0.167915 0.024474
vt 0.064286 0.142778
vt 0.042154 0.130000
vt 0.038814 0.287238
vt 0.013646 0.291676
vt 0.112158 0.414274
vt 0.095731 0.433851
vt 0.387842 0.414274
vt 0.461186 0.287238
vt 0.112158 0.414274
vt 0.250000 0.464444
vt 0.064286 0.142778
vt 0.435714 0.142778
vt 0.038814 0.287238
vn 0.3420 0.0000 -0.9397
vn 0.8660 0.0000 -0.5000
vn 0.9848 0.0000 0.1736
vn 0.6428 0.0000 0.7660
vn -0.0000 0.0000 1.0000
vn -0.6428 0.0000 0.7660
vn -0.9848 0.0000 0.1736
vn -0.8660 0.0000 -0.5000
vn -0.3420 0.0000 -0.9397
vn 0.0000 -1.0000 -0.0000
vn 0.0000 1.0000 0.0000
usemtl Exterior
s off
f 1/1/1 20/2/1 19/3/1 3/4/1
f 3/4/2 19/3/2 21/5/2 5/6/2
f 5/6/3 21/5/3 22/7/3 7/8/3
f 7/8/4 22/7/4 23/9/4 9/10/4
f 9/10/5 23/9/5 24/11/5 11/12/5
f 11/12/6 24/11/6 25/13/6 13/14/6
f 13/14/7 25/13/7 26/15/7 15/16/7
f 12/17/5 10/18/5 32/19/5 33/20/5
f 15/16/8 26/15/8 27/21/8 17/22/8
f 17/22/9 27/21/9 20/23/9 1/24/9
f 1/25/10 3/26/10 5/27/10 7/28/10 9/29/10 11/30/10 13/31/10 15/32/10 17/33/10
f 2/34/11 4/35/11 19/36/11 20/37/11
f 4/35/11 6/38/11 21/39/11 19/36/11
f 6/38/11 8/40/11 22/41/11 21/39/11
f 8/40/11 10/18/11 23/42/11 22/41/11
f 10/18/11 12/17/11 24/43/11 23/42/11
f 12/17/11 14/44/11 25/45/11 24/43/11
f 14/44/11 16/46/11 26/47/11 25/45/11
f 16/46/11 18/48/11 27/49/11 26/47/11
f 18/48/11 2/34/11 20/37/11 27/49/11
f 6/38/5 4/35/5 28/50/5 30/51/5
f 2/34/5 18/48/5 36/52/5 29/53/5
f 14/44/5 12/17/5 33/20/5 34/54/5
f 8/40/5 6/38/5 30/51/5 31/55/5
f 16/46/5 14/44/5 34/54/5 35/56/5
f 10/18/5 8/40/5 31/55/5 32/19/5
f 4/35/5 2/34/5 29/53/5 28/50/5
f 18/48/5 16/46/5 35/56/5 36/52/5
usemtl Hole
f 28/50/11 29/53/11 36/52/11 35/56/11 34/54/11 33/20/11 32/19/11 31/55/11 30/51/11
o Cube_Cube.001
v -5.871752 0.581752 1.000000
v -5.871752 0.852889 1.000000
v -5.871752 0.581752 -1.000000
v -5.871752 0.852889 -1.000000
v 5.871752 0.581752 1.000000
v 5.871752 0.852889 1.000000
v 5.871752 0.581752 -1.000000
v 5.871752 0.852889 -1.000000
vt 0.375000 0.000000
vt 0.625000 0.000000
vt 0.625000 0.250000
vt 0.375000 0.250000
vt 0.625000 0.500000
vt 0.375000 0.500000
vt 0.625000 0.750000
vt 0.375000 0.750000
vt 0.625000 1.000000
vt 0.375000 1.000000
vt 0.125000 0.500000
vt 0.125000 0.750000
vt 0.875000 0.500000
vt 0.875000 0.750000
vn -1.0000 0.0000 0.0000
vn 0.0000 0.0000 -1.0000
vn 1.0000 0.0000 0.0000
vn 0.0000 0.0000 1.0000
vn 0.0000 -1.0000 0.0000
vn 0.0000 1.0000 0.0000
usemtl Material.001
s off
f 37/57/12 38/58/12 40/59/12 39/60/12
f 39/60/13 40/59/13 44/61/13 43/62/13
f 43/62/14 44/61/14 42/63/14 41/64/14
f 41/64/15 42/63/15 38/65/15 37/66/15
f 39/67/16 43/62/16 41/64/16 37/68/16
f 44/61/17 40/69/17 38/70/17 42/63/17
o Cube.001_Cube.002
v -5.125374 0.581752 -1.250000
v -5.125374 0.852889 -1.250000
v -5.125374 0.581752 -3.250000
v -5.125374 0.852889 -3.250000
v 5.125374 0.581752 -1.250000
v 5.125374 0.852889 -1.250000
v 5.125374 0.581752 -3.250000
v 5.125374 0.852889 -3.250000
vt 0.375000 0.000000
vt 0.625000 0.000000
vt 0.625000 0.250000
vt 0.375000 0.250000
vt 0.625000 0.500000
vt 0.375000 0.500000
vt 0.625000 0.750000
vt 0.375000 0.750000
vt 0.625000 1.000000
vt 0.375000 1.000000
vt 0.125000 0.500000
vt 0.125000 0.750000
vt 0.875000 0.500000
vt 0.875000 0.750000
vn -1.0000 0.0000 0.0000
vn 0.0000 0.0000 -1.0000
vn 1.0000 0.0000 0.0000
vn 0.0000 0.0000 1.0000
vn 0.0000 -1.0000 0.0000
vn 0.0000 1.0000 0.0000
usemtl Material.001
s off
f 45/71/18 46/72/18 48/73/18 47/74/18
f 47/74/19 48/73/19 52/75/19 51/76/19
f 51/76/20 52/75/20 50/77/20 49/78/20
f 49/78/21 50/77/21 46/79/21 45/80/21
f 47/81/22 51/76/22 49/78/22 45/82/22
f 52/75/23 48/83/23 46/84/23 50/77/23
o Cube.002_Cube.003
v -3.457034 0.581752 -3.500000
v -3.457034 0.852889 -3.500000
v -3.457034 0.581752 -5.500000
v -3.457034 0.852889 -5.500000
v 3.457034 0.581752 -3.500000
v 3.457034 0.852889 -3.500000
v 3.457034 0.581752 -5.500000
v 3.457034 0.852889 -5.500000
vt 0.375000 0.000000
vt 0.625000 0.000000
vt 0.625000 0.250000
vt 0.375000 0.250000
vt 0.625000 0.500000
vt 0.375000 0.500000
vt 0.625000 0.750000
vt 0.375000 0.750000
vt 0.625000 1.000000
vt 0.375000 1.000000
vt 0.125000 0.500000
vt 0.125000 0.750000
vt 0.875000 0.500000
vt 0.875000 0.750000
vn -1.0000 0.0000 0.0000
vn 0.0000 0.0000 -1.0000
vn 1.0000 0.0000 0.0000
vn 0.0000 0.0000 1.0000
vn 0.0000 -1.0000 0.0000
vn 0.0000 1.0000 0.0000
usemtl Material.001
s off
f 53/85/24 54/86/24 56/87/24 55/88/24
f 55/88/25 56/87/25 60/89/25 59/90/25
f 59/90/26 60/89/26 58/91/26 57/92/26
f 57/92/27 58/91/27 54/93/27 53/94/27
f 55/95/28 59/90/28 57/92/28 53/96/28
f 60/89/29 56/97/29 54/98/29 58/91/29
o Cube.003_Cube.004
v -5.171802 0.581752 3.250000
v -5.171802 0.852889 3.250000
v -5.171802 0.581752 1.250000
v -5.171802 0.852889 1.250000
v 5.171802 0.581752 3.250000
v 5.171802 0.852889 3.250000
v 5.171802 0.581752 1.250000
v 5.171802 0.852889 1.250000
vt 0.375000 0.000000
vt 0.625000 0.000000
vt 0.625000 0.250000
vt 0.375000 0.250000
vt 0.625000 0.500000
vt 0.375000 0.500000
vt 0.625000 0.750000
vt 0.375000 0.750000
vt 0.625000 1.000000
vt 0.375000 1.000000
vt 0.125000 0.500000
vt 0.125000 0.750000
vt 0.875000 0.500000
vt 0.875000 0.750000
vn -1.0000 0.0000 0.0000
vn 0.0000 0.0000 -1.0000
vn 1.0000 0.0000 0.0000
vn 0.0000 0.0000 1.0000
vn 0.0000 -1.0000 0.0000
vn 0.0000 1.0000 0.0000
usemtl Material.001
s off
f 61/99/30 62/100/30 64/101/30 63/102/30
f 63/102/31 64/101/31 68/103/31 67/104/31
f 67/104/32 68/103/32 66/105/32 65/106/32
f 65/106/33 66/105/33 62/107/33 61/108/33
f 63/109/34 67/104/34 65/106/34 61/110/34
f 68/103/35 64/111/35 62/112/35 66/105/35
o Cube.004_Cube.005
v -3.698238 0.581752 5.500000
v -3.698238 0.852889 5.500000
v -3.698238 0.581752 3.500000
v -3.698238 0.852889 3.500000
v 3.698238 0.581752 5.500000
v 3.698238 0.852889 5.500000
v 3.698238 0.581752 3.500000
v 3.698238 0.852889 3.500000
vt 0.375000 0.000000
vt 0.625000 0.000000
vt 0.625000 0.250000
vt 0.375000 0.250000
vt 0.625000 0.500000
vt 0.375000 0.500000
vt 0.625000 0.750000
vt 0.375000 0.750000
vt 0.625000 1.000000
vt 0.375000 1.000000
vt 0.125000 0.500000
vt 0.125000 0.750000
vt 0.875000 0.500000
vt 0.875000 0.750000
vn -1.0000 0.0000 0.0000
vn 0.0000 0.0000 -1.0000
vn 1.0000 0.0000 0.0000
vn 0.0000 0.0000 1.0000
vn 0.0000 -1.0000 0.0000
vn 0.0000 1.0000 0.0000
usemtl Material.001
s off
f 69/113/36 70/114/36 72/115/36 71/116/36
f 71/116/37 72/115/37 76/117/37 75/118/37
f 75/118/38 76/117/38 74/119/38 73/120/38
f 73/120/39 74/119/39 70/121/39 69/122/39
f 71/123/40 75/118/40 73/120/40 69/124/40
f 76/117/41 72/125/41 70/126/41 74/119/41
