# Blender v2.83.5 OBJ File: 'chest.blend'
# www.blender.org
mtllib chest.mtl
o Chest_Cube
v 1.076707 0.237465 -2.388628
v 1.000000 -1.000000 -2.218457
v 1.076707 -0.010665 2.388628
v 1.000000 -1.000000 2.218457
v -1.076707 0.408073 -2.388628
v -1.000000 -1.000000 -2.218457
v -1.076707 0.159944 2.388628
v -1.000000 -1.000000 2.218457
v 0.710968 0.477642 2.022890
v -0.710968 0.648250 2.022890
v 0.710968 0.725771 -2.022890
v -0.710968 0.896380 -2.022890
v 1.076707 -0.010665 2.388628
v -1.076707 0.159944 2.388628
v 1.076707 0.237465 -2.388628
v -1.076707 0.408073 -2.388628
vt 0.625000 0.500000
vt 0.625000 0.250000
vt 0.625000 0.250000
vt 0.625000 0.500000
vt 0.375000 0.750000
vt 0.625000 0.750000
vt 0.625000 1.000000
vt 0.375000 1.000000
vt 0.375000 0.000000
vt 0.625000 0.000000
vt 0.375000 0.250000
vt 0.125000 0.500000
vt 0.375000 0.500000
vt 0.125000 0.750000
vt 0.667460 0.519140
vt 0.832540 0.519140
vt 0.832540 0.730860
vt 0.667460 0.730860
vt 0.625000 0.750000
vt 0.625000 1.000000
vt 0.625000 0.000000
vt 0.875000 0.750000
vt 0.875000 0.500000
vn 0.0000 0.0000 1.0000
vn -0.0064 -0.1564 0.9877
vn -0.9982 -0.0596 -0.0016
vn 0.0000 -1.0000 0.0000
vn 0.9976 -0.0687 -0.0019
vn -0.0052 -0.1276 -0.9918
vn 0.1189 0.9910 0.0608
vn 0.0571 0.5985 0.7991
vn 0.7999 0.5991 0.0337
vn -0.7999 0.5991 0.0337
vn 0.0571 0.5985 -0.7991
usemtl Material
s off
f 1/1/1 5/2/1 16/3/1 15/4/1
f 4/5/2 3/6/2 7/7/2 8/8/2
f 8/9/3 7/10/3 5/2/3 6/11/3
f 6/12/4 2/13/4 4/5/4 8/14/4
f 2/13/5 1/1/5 3/6/5 4/5/5
f 6/11/6 5/2/6 1/1/6 2/13/6
f 11/15/7 12/16/7 10/17/7 9/18/7
f 7/7/1 3/6/1 13/19/1 14/20/1
f 5/2/1 7/10/1 14/21/1 16/3/1
f 3/6/1 1/1/1 15/4/1 13/19/1
f 9/18/8 10/17/8 14/22/8 13/19/8
f 11/15/9 9/18/9 13/19/9 15/4/9
f 10/17/10 12/16/10 16/23/10 14/22/10
f 12/16/11 11/15/11 15/4/11 16/23/11
o Lock_Cube.001
v 0.969855 -0.460550 -0.152983
v 0.624863 0.705931 -0.152983
v 0.969855 -0.460550 0.272355
v 0.624863 0.705931 0.272355
v 1.259971 -0.374747 -0.152983
v 0.914979 0.791734 -0.152983
v 1.259971 -0.374747 0.272355
v 0.914979 0.791734 0.272355
vt 0.375000 0.000000
vt 0.375000 0.250000
vt 0.625000 0.250000
vt 0.625000 0.000000
vt 0.375000 0.500000
vt 0.625000 0.500000
vt 0.375000 0.750000
vt 0.625000 0.750000
vt 0.375000 1.000000
vt 0.625000 1.000000
vt 0.125000 0.500000
vt 0.125000 0.750000
vt 0.875000 0.750000
vt 0.875000 0.500000
vn -0.9589 -0.2836 0.0000
vn -0.0000 0.0000 1.0000
vn 0.9589 0.2836 0.0000
vn -0.0000 0.0000 -1.0000
vn 0.2836 -0.9589 0.0000
vn -0.2836 0.9589 0.0000
usemtl Gold
s off
f 17/24/12 19/25/12 20/26/12 18/27/12
f 19/25/13 23/28/13 24/29/13 20/26/13
f 23/28/14 21/30/14 22/31/14 24/29/14
f 21/30/15 17/32/15 18/33/15 22/31/15
f 19/34/16 17/35/16 21/30/16 23/28/16
f 24/29/17 22/31/17 18/36/17 20/37/17
